<?xml version="1.0" encoding="utf-8"?>
<svg width="65px" height="69px" viewBox="0 0 65 69" version="1.1" xmlns:xlink="http://www.w3.org/1999/xlink" xmlns="http://www.w3.org/2000/svg">
  <desc>Created with Lunacy</desc>
  <g id="" fill="#FFFFFF">
    <path d="M46.0586 32.5586L25.4336 20.0195C23.5821 18.9883 21.25 20.3125 21.25 22.4805L21.25 46.8555C21.25 49.0118 23.5703 50.3476 25.4336 49.3164L46.0586 37.4805C47.9804 36.4141 47.9804 33.6367 46.0586 32.5586ZM61.5625 34.668C61.5625 18.6133 48.5547 5.60547 32.5 5.60547C16.4453 5.60547 3.4375 18.6133 3.4375 34.668C3.4375 50.7227 16.4453 63.7305 32.5 63.7305C48.5547 63.7305 61.5625 50.7227 61.5625 34.668ZM9.0625 34.668C9.0625 21.7188 19.5508 11.2305 32.5 11.2305C45.4492 11.2305 55.9375 21.7188 55.9375 34.668C55.9375 47.6172 45.4492 58.1055 32.5 58.1055C19.5508 58.1055 9.0625 47.6172 9.0625 34.668Z" />
  </g>
</svg>